<?xml version="1.0" encoding="UTF-8" standalone="no"?>
<!-- Created with Inkscape (http://www.inkscape.org/) -->

<svg
   xmlns:dc="http://purl.org/dc/elements/1.1/"
   xmlns:cc="http://creativecommons.org/ns#"
   xmlns:rdf="http://www.w3.org/1999/02/22-rdf-syntax-ns#"
   xmlns:svg="http://www.w3.org/2000/svg"
   xmlns="http://www.w3.org/2000/svg"
   xmlns:sodipodi="http://sodipodi.sourceforge.net/DTD/sodipodi-0.dtd"
   xmlns:inkscape="http://www.inkscape.org/namespaces/inkscape"
   width="919.99976"
   height="626.15045"
   viewBox="0 0 919.99978 626.15043"
   id="svg2"
   version="1.1"
   inkscape:version="0.91 r13725"
   sodipodi:docname="3PEOPLEPLAN.svg"
   inkscape:export-filename="C:\Users\Kasia\Documents\Willus\Referral\LOGO\3PEOPLEPLAN.png"
   inkscape:export-xdpi="300.20801"
   inkscape:export-ydpi="300.20801">
  <defs
     id="defs4" />
  <sodipodi:namedview
     id="base"
     pagecolor="#ffffff"
     bordercolor="#666666"
     borderopacity="1.0"
     inkscape:pageopacity="0.0"
     inkscape:pageshadow="2"
     inkscape:zoom="0.88591868"
     inkscape:cx="459.99987"
     inkscape:cy="313.07523"
     inkscape:document-units="px"
     inkscape:current-layer="layer1"
     showgrid="false"
     showguides="false"
     inkscape:window-width="1366"
     inkscape:window-height="706"
     inkscape:window-x="-8"
     inkscape:window-y="-8"
     inkscape:window-maximized="1"
     fit-margin-top="10"
     fit-margin-left="10"
     fit-margin-right="10"
     fit-margin-bottom="10"
     units="px">
    <inkscape:grid
       type="xygrid"
       id="grid4150"
       originx="-10.403712"
       originy="-154.59181" />
  </sodipodi:namedview>
  <metadata
     id="metadata7">
    <rdf:RDF>
      <cc:Work
         rdf:about="">
        <dc:format>image/svg+xml</dc:format>
        <dc:type
           rdf:resource="http://purl.org/dc/dcmitype/StillImage" />
        <dc:title></dc:title>
      </cc:Work>
    </rdf:RDF>
  </metadata>
  <g
     inkscape:label="Layer 1"
     inkscape:groupmode="layer"
     id="layer1"
     transform="translate(-10.403714,-271.61998)">
    <path
       style="fill:#000000;fill-opacity:1;stroke:none;stroke-width:10;stroke-miterlimit:4;stroke-dasharray:none;stroke-opacity:1"
       d="m 455.02344,0 a 90.816299,90.816299 0 0 0 -90.81641,90.816406 90.816299,90.816299 0 0 0 29.05859,66.429684 l -23.07617,0 c -33.492,2.55672 -59.78906,30.43451 -59.78906,64.5918 l 0,0.002 0,102.6836 a 5.0005,5.0005 0 0 1 -8.47266,3.59765 c -8.3733,-8.08701 -19.5505,-12.61441 -31.1914,-12.63281 -24.9083,0.004 -44.99219,20.09062 -44.99219,45 0,24.91204 20.088,45 45,45 11.6326,-0.004 22.80795,-4.50953 31.18945,-12.57617 a 5.0005,5.0005 0 0 1 8.4668,3.60156 l 0,175.28125 c 0,3.45109 0.27587,6.83508 0.79297,10.13867 a 450.04982,450.04982 0 0 0 143.83789,24.2168 450.04982,450.04982 0 0 0 144.64063,-24.60156 c 0.47829,-3.18136 0.72851,-6.437 0.72851,-9.75391 l 0,-175.28711 a 5.0005,5.0005 0 0 1 8.46875,-3.60156 c 8.3675,8.05595 19.51957,12.56283 31.13477,12.58203 24.9083,-0.004 44.99218,-20.09061 44.99218,-45 0,-24.91204 -20.088,-45 -45,-45 -11.6069,0.005 -22.75916,4.4937 -31.13476,12.5293 a 5.0005,5.0005 0 0 1 -8.46094,-3.60938 l 0,-102.57031 c 0,-34.1579 -26.29616,-62.03559 -59.78906,-64.5918 l -23.77344,0 A 90.816299,90.816299 0 0 0 545.83984,90.816406 90.816299,90.816299 0 0 0 455.02344,0 Z m 144.64844,581.54883 c -0.0118,0.0788 -0.0289,0.15571 -0.041,0.23437 l 0.0312,-0.082 0.0644,-0.17187 a 450.04982,450.04982 0 0 1 -0.0547,0.0195 z m -288.47852,0.38476 a 450.04982,450.04982 0 0 1 -0.01,-0.004 l 0.0371,0.15429 c -0.008,-0.0505 -0.0194,-0.0999 -0.0273,-0.15039 z m 58.99609,-424.6875 c 0.0168,-0.001 0.0339,-6.3e-4 0.0508,-0.002 l -0.14843,0.002 0.0977,0 z M 170.25391,31.126953 A 75.253288,75.253288 0 0 0 95,106.37891 a 75.253288,75.253288 0 0 0 19.89648,50.86718 l -109.8730425,0 A 450.04982,450.04982 0 0 0 45.824219,342.34375 50,50 0 0 1 90,315.69922 a 50,50 0 0 1 50,50 50,50 0 0 1 -50,50 50,50 0 0 1 -2.345703,-0.11719 450.04982,450.04982 0 0 0 213.042973,163.0332 l 0.0215,-0.0215 c -0.2031,-2.24135 -0.32227,-4.50537 -0.32227,-6.79883 l 0,-165.00781 c -8.7901,5.63279 -19.06739,8.69817 -29.65429,8.70117 -30.3164,0 -55,-24.68356 -55,-55 0,-30.31644 24.6836,-55 55,-55 a 5.0005,5.0005 0 0 1 0.01,0 c 10.5892,0.0167 20.86454,3.09834 29.64844,8.74414 l 0,-92.39453 c 0.003,-27.52437 14.95033,-51.60283 37.14453,-64.5918 l -111.95703,0 a 75.253288,75.253288 0 0 0 19.91992,-50.86718 75.253288,75.253288 0 0 0 -75.2539,-75.251957 z m 167.29101,126.119137 0.0176,0 -0.004,-0.008 c -0.005,0.003 -0.009,0.005 -0.0137,0.008 z M 739.79297,31.126953 a 75.253288,75.253288 0 0 0 -75.25195,75.251957 75.253288,75.253288 0 0 0 19.89648,50.86718 l -111.17773,0 c 22.1942,12.9891 37.14062,37.06783 37.14062,64.5918 l 0,92.33008 c 8.778,-5.61129 19.02955,-8.67569 29.59375,-8.67969 30.3164,0 55,24.68356 55,55 0,30.31644 -24.6836,55 -55,55 a 5.0005,5.0005 0 0 1 -0.01,0 c -10.56591,-0.0175 -20.8164,-3.09502 -29.5879,-8.71875 l 0,165.02539 a 5.0005,5.0005 0 0 0 0,0.002 c -2e-4,1.98018 -0.1015,3.93522 -0.2539,5.87695 l 0.0195,0.0234 a 450.04982,450.04982 0 0 0 211.8125,-162.06641 50,50 0 0 1 -1.92969,0.0684 50,50 0 0 1 -50,-50 50,50 0 0 1 50,-50 50,50 0 0 1 44.0918,26.50195 450.04982,450.04982 0 0 0 40.88672,-184.95508 l -109.89649,0 a 75.253288,75.253288 0 0 0 19.9202,-50.86722 75.253288,75.253288 0 0 0 -75.25391,-75.251957 z M 573.25977,157.24609 c -0.0928,-0.0543 -0.18815,-0.10428 -0.28125,-0.1582 l 0,0.1582 0.28125,0 z m -91.62891,20.30664 -16.59375,33.18946 10,10 0,260 -20,40 -20,-40 0,-260 10,-10 -16.54297,-33.08789 a 90.816299,90.816299 0 0 0 26.5293,3.97851 90.816299,90.816299 0 0 0 26.60742,-4.08008 z m -168.14844,414.00391 0.125,0.52344 0.0527,0 c -0.0576,-0.1753 -0.12154,-0.34748 -0.17774,-0.52344 z"
       transform="translate(15.380276,281.61998)"
       id="path4136-2"
       inkscape:connector-curvature="0" />
  </g>
</svg>
